# xmcd
#
# Track frame offsets:
#	150
#	29668
#	77939
#	111802
#	144642
#	177746
#	212886
#	233675
#	268335
#
# Disc length: 4361 seconds
#
# Revision: 1
# Processed by: cddbd v1.5.2PL0 Copyright (c) Steve Scherf et al.
# Submitted via: audiograbber 1.83.01
#
DISCID=8b110709
DTITLE=Grateful Dead - 93-03-16 Capital Centre, Landover MD
DYEAR=1900
DGENRE=
TTITLE0=Jack Straw
TTITLE1=Row Jimmy
TTITLE2=New Minglewood Blues
TTITLE3=So Many Roads
TTITLE4=Cassidy
TTITLE5=Tennessee Jed
TTITLE6=Promised Land
TTITLE7=Scarlet Begonias
TTITLE8=Fire On The Mountain
EXTD=
EXTT0=
EXTT1=
EXTT2=
EXTT3=
EXTT4=
EXTT5=
EXTT6=
EXTT7=
EXTT8=
PLAYORDER=
